<svg version="1.1" xmlns="http://www.w3.org/2000/svg" xmlns:xlink="http://www.w3.org/1999/xlink" width="1094.17724609375" height="366"><defs/><g><text fill="#eeeeee" stroke="none" font-family="Arial" font-size="24px" font-style="normal" font-weight="normal" text-decoration="none" x="0" y="0">UNREGISTERED</text><text fill="#eeeeee" stroke="none" font-family="Arial" font-size="24px" font-style="normal" font-weight="normal" text-decoration="none" x="0" y="30">UNREGISTERED</text><text fill="#eeeeee" stroke="none" font-family="Arial" font-size="24px" font-style="normal" font-weight="normal" text-decoration="none" x="0" y="60">UNREGISTERED</text><text fill="#eeeeee" stroke="none" font-family="Arial" font-size="24px" font-style="normal" font-weight="normal" text-decoration="none" x="0" y="90">UNREGISTERED</text><text fill="#eeeeee" stroke="none" font-family="Arial" font-size="24px" font-style="normal" font-weight="normal" text-decoration="none" x="0" y="120">UNREGISTERED</text><text fill="#eeeeee" stroke="none" font-family="Arial" font-size="24px" font-style="normal" font-weight="normal" text-decoration="none" x="0" y="150">UNREGISTERED</text><text fill="#eeeeee" stroke="none" font-family="Arial" font-size="24px" font-style="normal" font-weight="normal" text-decoration="none" x="0" y="180">UNREGISTERED</text><text fill="#eeeeee" stroke="none" font-family="Arial" font-size="24px" font-style="normal" font-weight="normal" text-decoration="none" x="0" y="210">UNREGISTERED</text><text fill="#eeeeee" stroke="none" font-family="Arial" font-size="24px" font-style="normal" font-weight="normal" text-decoration="none" x="0" y="240">UNREGISTERED</text><text fill="#eeeeee" stroke="none" font-family="Arial" font-size="24px" font-style="normal" font-weight="normal" text-decoration="none" x="0" y="270">UNREGISTERED</text><text fill="#eeeeee" stroke="none" font-family="Arial" font-size="24px" font-style="normal" font-weight="normal" text-decoration="none" x="0" y="300">UNREGISTERED</text><text fill="#eeeeee" stroke="none" font-family="Arial" font-size="24px" font-style="normal" font-weight="normal" text-decoration="none" x="0" y="330">UNREGISTERED</text><text fill="#eeeeee" stroke="none" font-family="Arial" font-size="24px" font-style="normal" font-weight="normal" text-decoration="none" x="0" y="360">UNREGISTERED</text><text fill="#eeeeee" stroke="none" font-family="Arial" font-size="24px" font-style="normal" font-weight="normal" text-decoration="none" x="200" y="0">UNREGISTERED</text><text fill="#eeeeee" stroke="none" font-family="Arial" font-size="24px" font-style="normal" font-weight="normal" text-decoration="none" x="200" y="30">UNREGISTERED</text><text fill="#eeeeee" stroke="none" font-family="Arial" font-size="24px" font-style="normal" font-weight="normal" text-decoration="none" x="200" y="60">UNREGISTERED</text><text fill="#eeeeee" stroke="none" font-family="Arial" font-size="24px" font-style="normal" font-weight="normal" text-decoration="none" x="200" y="90">UNREGISTERED</text><text fill="#eeeeee" stroke="none" font-family="Arial" font-size="24px" font-style="normal" font-weight="normal" text-decoration="none" x="200" y="120">UNREGISTERED</text><text fill="#eeeeee" stroke="none" font-family="Arial" font-size="24px" font-style="normal" font-weight="normal" text-decoration="none" x="200" y="150">UNREGISTERED</text><text fill="#eeeeee" stroke="none" font-family="Arial" font-size="24px" font-style="normal" font-weight="normal" text-decoration="none" x="200" y="180">UNREGISTERED</text><text fill="#eeeeee" stroke="none" font-family="Arial" font-size="24px" font-style="normal" font-weight="normal" text-decoration="none" x="200" y="210">UNREGISTERED</text><text fill="#eeeeee" stroke="none" font-family="Arial" font-size="24px" font-style="normal" font-weight="normal" text-decoration="none" x="200" y="240">UNREGISTERED</text><text fill="#eeeeee" stroke="none" font-family="Arial" font-size="24px" font-style="normal" font-weight="normal" text-decoration="none" x="200" y="270">UNREGISTERED</text><text fill="#eeeeee" stroke="none" font-family="Arial" font-size="24px" font-style="normal" font-weight="normal" text-decoration="none" x="200" y="300">UNREGISTERED</text><text fill="#eeeeee" stroke="none" font-family="Arial" font-size="24px" font-style="normal" font-weight="normal" text-decoration="none" x="200" y="330">UNREGISTERED</text><text fill="#eeeeee" stroke="none" font-family="Arial" font-size="24px" font-style="normal" font-weight="normal" text-decoration="none" x="200" y="360">UNREGISTERED</text><text fill="#eeeeee" stroke="none" font-family="Arial" font-size="24px" font-style="normal" font-weight="normal" text-decoration="none" x="400" y="0">UNREGISTERED</text><text fill="#eeeeee" stroke="none" font-family="Arial" font-size="24px" font-style="normal" font-weight="normal" text-decoration="none" x="400" y="30">UNREGISTERED</text><text fill="#eeeeee" stroke="none" font-family="Arial" font-size="24px" font-style="normal" font-weight="normal" text-decoration="none" x="400" y="60">UNREGISTERED</text><text fill="#eeeeee" stroke="none" font-family="Arial" font-size="24px" font-style="normal" font-weight="normal" text-decoration="none" x="400" y="90">UNREGISTERED</text><text fill="#eeeeee" stroke="none" font-family="Arial" font-size="24px" font-style="normal" font-weight="normal" text-decoration="none" x="400" y="120">UNREGISTERED</text><text fill="#eeeeee" stroke="none" font-family="Arial" font-size="24px" font-style="normal" font-weight="normal" text-decoration="none" x="400" y="150">UNREGISTERED</text><text fill="#eeeeee" stroke="none" font-family="Arial" font-size="24px" font-style="normal" font-weight="normal" text-decoration="none" x="400" y="180">UNREGISTERED</text><text fill="#eeeeee" stroke="none" font-family="Arial" font-size="24px" font-style="normal" font-weight="normal" text-decoration="none" x="400" y="210">UNREGISTERED</text><text fill="#eeeeee" stroke="none" font-family="Arial" font-size="24px" font-style="normal" font-weight="normal" text-decoration="none" x="400" y="240">UNREGISTERED</text><text fill="#eeeeee" stroke="none" font-family="Arial" font-size="24px" font-style="normal" font-weight="normal" text-decoration="none" x="400" y="270">UNREGISTERED</text><text fill="#eeeeee" stroke="none" font-family="Arial" font-size="24px" font-style="normal" font-weight="normal" text-decoration="none" x="400" y="300">UNREGISTERED</text><text fill="#eeeeee" stroke="none" font-family="Arial" font-size="24px" font-style="normal" font-weight="normal" text-decoration="none" x="400" y="330">UNREGISTERED</text><text fill="#eeeeee" stroke="none" font-family="Arial" font-size="24px" font-style="normal" font-weight="normal" text-decoration="none" x="400" y="360">UNREGISTERED</text><text fill="#eeeeee" stroke="none" font-family="Arial" font-size="24px" font-style="normal" font-weight="normal" text-decoration="none" x="600" y="0">UNREGISTERED</text><text fill="#eeeeee" stroke="none" font-family="Arial" font-size="24px" font-style="normal" font-weight="normal" text-decoration="none" x="600" y="30">UNREGISTERED</text><text fill="#eeeeee" stroke="none" font-family="Arial" font-size="24px" font-style="normal" font-weight="normal" text-decoration="none" x="600" y="60">UNREGISTERED</text><text fill="#eeeeee" stroke="none" font-family="Arial" font-size="24px" font-style="normal" font-weight="normal" text-decoration="none" x="600" y="90">UNREGISTERED</text><text fill="#eeeeee" stroke="none" font-family="Arial" font-size="24px" font-style="normal" font-weight="normal" text-decoration="none" x="600" y="120">UNREGISTERED</text><text fill="#eeeeee" stroke="none" font-family="Arial" font-size="24px" font-style="normal" font-weight="normal" text-decoration="none" x="600" y="150">UNREGISTERED</text><text fill="#eeeeee" stroke="none" font-family="Arial" font-size="24px" font-style="normal" font-weight="normal" text-decoration="none" x="600" y="180">UNREGISTERED</text><text fill="#eeeeee" stroke="none" font-family="Arial" font-size="24px" font-style="normal" font-weight="normal" text-decoration="none" x="600" y="210">UNREGISTERED</text><text fill="#eeeeee" stroke="none" font-family="Arial" font-size="24px" font-style="normal" font-weight="normal" text-decoration="none" x="600" y="240">UNREGISTERED</text><text fill="#eeeeee" stroke="none" font-family="Arial" font-size="24px" font-style="normal" font-weight="normal" text-decoration="none" x="600" y="270">UNREGISTERED</text><text fill="#eeeeee" stroke="none" font-family="Arial" font-size="24px" font-style="normal" font-weight="normal" text-decoration="none" x="600" y="300">UNREGISTERED</text><text fill="#eeeeee" stroke="none" font-family="Arial" font-size="24px" font-style="normal" font-weight="normal" text-decoration="none" x="600" y="330">UNREGISTERED</text><text fill="#eeeeee" stroke="none" font-family="Arial" font-size="24px" font-style="normal" font-weight="normal" text-decoration="none" x="600" y="360">UNREGISTERED</text><text fill="#eeeeee" stroke="none" font-family="Arial" font-size="24px" font-style="normal" font-weight="normal" text-decoration="none" x="800" y="0">UNREGISTERED</text><text fill="#eeeeee" stroke="none" font-family="Arial" font-size="24px" font-style="normal" font-weight="normal" text-decoration="none" x="800" y="30">UNREGISTERED</text><text fill="#eeeeee" stroke="none" font-family="Arial" font-size="24px" font-style="normal" font-weight="normal" text-decoration="none" x="800" y="60">UNREGISTERED</text><text fill="#eeeeee" stroke="none" font-family="Arial" font-size="24px" font-style="normal" font-weight="normal" text-decoration="none" x="800" y="90">UNREGISTERED</text><text fill="#eeeeee" stroke="none" font-family="Arial" font-size="24px" font-style="normal" font-weight="normal" text-decoration="none" x="800" y="120">UNREGISTERED</text><text fill="#eeeeee" stroke="none" font-family="Arial" font-size="24px" font-style="normal" font-weight="normal" text-decoration="none" x="800" y="150">UNREGISTERED</text><text fill="#eeeeee" stroke="none" font-family="Arial" font-size="24px" font-style="normal" font-weight="normal" text-decoration="none" x="800" y="180">UNREGISTERED</text><text fill="#eeeeee" stroke="none" font-family="Arial" font-size="24px" font-style="normal" font-weight="normal" text-decoration="none" x="800" y="210">UNREGISTERED</text><text fill="#eeeeee" stroke="none" font-family="Arial" font-size="24px" font-style="normal" font-weight="normal" text-decoration="none" x="800" y="240">UNREGISTERED</text><text fill="#eeeeee" stroke="none" font-family="Arial" font-size="24px" font-style="normal" font-weight="normal" text-decoration="none" x="800" y="270">UNREGISTERED</text><text fill="#eeeeee" stroke="none" font-family="Arial" font-size="24px" font-style="normal" font-weight="normal" text-decoration="none" x="800" y="300">UNREGISTERED</text><text fill="#eeeeee" stroke="none" font-family="Arial" font-size="24px" font-style="normal" font-weight="normal" text-decoration="none" x="800" y="330">UNREGISTERED</text><text fill="#eeeeee" stroke="none" font-family="Arial" font-size="24px" font-style="normal" font-weight="normal" text-decoration="none" x="800" y="360">UNREGISTERED</text><text fill="#eeeeee" stroke="none" font-family="Arial" font-size="24px" font-style="normal" font-weight="normal" text-decoration="none" x="1000" y="0">UNREGISTERED</text><text fill="#eeeeee" stroke="none" font-family="Arial" font-size="24px" font-style="normal" font-weight="normal" text-decoration="none" x="1000" y="30">UNREGISTERED</text><text fill="#eeeeee" stroke="none" font-family="Arial" font-size="24px" font-style="normal" font-weight="normal" text-decoration="none" x="1000" y="60">UNREGISTERED</text><text fill="#eeeeee" stroke="none" font-family="Arial" font-size="24px" font-style="normal" font-weight="normal" text-decoration="none" x="1000" y="90">UNREGISTERED</text><text fill="#eeeeee" stroke="none" font-family="Arial" font-size="24px" font-style="normal" font-weight="normal" text-decoration="none" x="1000" y="120">UNREGISTERED</text><text fill="#eeeeee" stroke="none" font-family="Arial" font-size="24px" font-style="normal" font-weight="normal" text-decoration="none" x="1000" y="150">UNREGISTERED</text><text fill="#eeeeee" stroke="none" font-family="Arial" font-size="24px" font-style="normal" font-weight="normal" text-decoration="none" x="1000" y="180">UNREGISTERED</text><text fill="#eeeeee" stroke="none" font-family="Arial" font-size="24px" font-style="normal" font-weight="normal" text-decoration="none" x="1000" y="210">UNREGISTERED</text><text fill="#eeeeee" stroke="none" font-family="Arial" font-size="24px" font-style="normal" font-weight="normal" text-decoration="none" x="1000" y="240">UNREGISTERED</text><text fill="#eeeeee" stroke="none" font-family="Arial" font-size="24px" font-style="normal" font-weight="normal" text-decoration="none" x="1000" y="270">UNREGISTERED</text><text fill="#eeeeee" stroke="none" font-family="Arial" font-size="24px" font-style="normal" font-weight="normal" text-decoration="none" x="1000" y="300">UNREGISTERED</text><text fill="#eeeeee" stroke="none" font-family="Arial" font-size="24px" font-style="normal" font-weight="normal" text-decoration="none" x="1000" y="330">UNREGISTERED</text><text fill="#eeeeee" stroke="none" font-family="Arial" font-size="24px" font-style="normal" font-weight="normal" text-decoration="none" x="1000" y="360">UNREGISTERED</text><g transform="translate(-158,-118) scale(1,1)"><path fill="#ffffff" stroke="none" d="M 188.02116672585228 353.68 C 188.02116672585228 348.886167936 191.90700905079774 345 196.700439453125 345 C 201.49386985545226 345 205.37971218039772 348.886167936 205.37971218039772 353.68 C 205.37971218039772 358.473832064 201.49386985545226 362.36 196.700439453125 362.36 C 191.90700905079774 362.36 188.02116672585228 358.473832064 188.02116672585228 353.68 Z"/></g><g transform="translate(-158,-118) scale(1,1)"><path fill="none" stroke="#000000" d="M 188.02116672585228 353.68 C 188.02116672585228 348.886167936 191.90700905079774 345 196.700439453125 345 C 201.49386985545226 345 205.37971218039772 348.886167936 205.37971218039772 353.68 C 205.37971218039772 358.473832064 201.49386985545226 362.36 196.700439453125 362.36 C 191.90700905079774 362.36 188.02116672585228 358.473832064 188.02116672585228 353.68 Z" stroke-miterlimit="10"/></g><g transform="translate(-158,-118) scale(1,1)"><path fill="none" stroke="#000000" d="M 196.700439453125 362.36 L 196.700439453125 379.64" stroke-miterlimit="10"/></g><g transform="translate(-158,-118) scale(1,1)"><path fill="none" stroke="#000000" d="M 187.51062127130683 368.84 L 205.89025763494317 368.84" stroke-miterlimit="10"/></g><g transform="translate(-158,-118) scale(1,1)"><path fill="none" stroke="#000000" d="M 196.700439453125 379.64 L 183.93680308948865 397" stroke-miterlimit="10"/></g><g transform="translate(-158,-118) scale(1,1)"><path fill="none" stroke="#000000" d="M 196.700439453125 379.64 L 209.46407581676135 397" stroke-miterlimit="10"/></g><g transform="translate(-158,-118) scale(1,1)"><g><path fill="none" stroke="none"/><text fill="#000000" stroke="none" font-family="Arial" font-size="13px" font-style="normal" font-weight="bold" text-decoration="none" x="172.5" y="416">Usuario</text></g></g><g transform="translate(-158,-118) scale(1,1)"><path fill="#C0C0C0" stroke="none" d="M 535 152 C 535 142.6111584 606.6344320000001 135 695 135 C 783.3655679999999 135 855 142.6111584 855 152 C 855 161.3888416 783.3655679999999 169 695 169 C 606.6344320000001 169 535 161.3888416 535 152 Z" opacity="0.2"/></g><g transform="translate(-158,-118) scale(1,1)"><path fill="#ffffff" stroke="none" d="M 528 145 C 528 135.6111584 599.6344320000001 128 688 128 C 776.3655679999999 128 848 135.6111584 848 145 C 848 154.3888416 776.3655679999999 162 688 162 C 599.6344320000001 162 528 154.3888416 528 145 Z"/></g><g transform="translate(-158,-118) scale(1,1)"><path fill="none" stroke="#000000" d="M 528 145 C 528 135.6111584 599.6344320000001 128 688 128 C 776.3655679999999 128 848 135.6111584 848 145 C 848 154.3888416 776.3655679999999 162 688 162 C 599.6344320000001 162 528 154.3888416 528 145 Z" stroke-miterlimit="10"/></g><g transform="translate(-158,-118) scale(1,1)"><g><path fill="none" stroke="none"/><text fill="#000000" stroke="none" font-family="Arial" font-size="13px" font-style="normal" font-weight="bold" text-decoration="none" x="659.825927734375" y="150.5">Cadastro</text></g></g><g transform="translate(-158,-118) scale(1,1)"><path fill="#C0C0C0" stroke="none" d="M 519 272 C 519 262.6111584 590.6344320000001 255 679 255 C 767.3655679999999 255 839 262.6111584 839 272 C 839 281.3888416 767.3655679999999 289 679 289 C 590.6344320000001 289 519 281.3888416 519 272 Z" opacity="0.2"/></g><g transform="translate(-158,-118) scale(1,1)"><path fill="#ffffff" stroke="none" d="M 512 265 C 512 255.6111584 583.6344320000001 248 672 248 C 760.3655679999999 248 832 255.6111584 832 265 C 832 274.3888416 760.3655679999999 282 672 282 C 583.6344320000001 282 512 274.3888416 512 265 Z"/></g><g transform="translate(-158,-118) scale(1,1)"><path fill="none" stroke="#000000" d="M 512 265 C 512 255.6111584 583.6344320000001 248 672 248 C 760.3655679999999 248 832 255.6111584 832 265 C 832 274.3888416 760.3655679999999 282 672 282 C 583.6344320000001 282 512 274.3888416 512 265 Z" stroke-miterlimit="10"/></g><g transform="translate(-158,-118) scale(1,1)"><g><path fill="none" stroke="none"/><text fill="#000000" stroke="none" font-family="Arial" font-size="13px" font-style="normal" font-weight="bold" text-decoration="none" x="616.372314453125" y="270.5">Ordem de compra</text></g></g><g transform="translate(-158,-118) scale(1,1)"><path fill="none" stroke="#000000" d="M 226 375 L 599 283" stroke-miterlimit="10"/></g><g transform="translate(-158,-118) scale(1,1)"><path fill="#C0C0C0" stroke="none" d="M 519 336 C 519 326.6111584 590.7685498101563 319 679.299560546875 319 C 767.8305712835937 319 839.59912109375 326.6111584 839.59912109375 336 C 839.59912109375 345.3888416 767.8305712835937 353 679.299560546875 353 C 590.7685498101563 353 519 345.3888416 519 336 Z" opacity="0.2"/></g><g transform="translate(-158,-118) scale(1,1)"><path fill="#ffffff" stroke="none" d="M 512 329 C 512 319.6111584 583.7685498101563 312 672.299560546875 312 C 760.8305712835937 312 832.59912109375 319.6111584 832.59912109375 329 C 832.59912109375 338.3888416 760.8305712835937 346 672.299560546875 346 C 583.7685498101563 346 512 338.3888416 512 329 Z"/></g><g transform="translate(-158,-118) scale(1,1)"><path fill="none" stroke="#000000" d="M 512 329 C 512 319.6111584 583.7685498101563 312 672.299560546875 312 C 760.8305712835937 312 832.59912109375 319.6111584 832.59912109375 329 C 832.59912109375 338.3888416 760.8305712835937 346 672.299560546875 346 C 583.7685498101563 346 512 338.3888416 512 329 Z" stroke-miterlimit="10"/></g><g transform="translate(-158,-118) scale(1,1)"><g><path fill="none" stroke="none"/><text fill="#000000" stroke="none" font-family="Arial" font-size="13px" font-style="normal" font-weight="bold" text-decoration="none" x="621.365966796875" y="334.5">Ordem de venda</text></g></g><g transform="translate(-158,-118) scale(1,1)"><path fill="#C0C0C0" stroke="none" d="M 519 400 C 519 390.6111584 590.6344320000001 383 679 383 C 767.3655679999999 383 839 390.6111584 839 400 C 839 409.3888416 767.3655679999999 417 679 417 C 590.6344320000001 417 519 409.3888416 519 400 Z" opacity="0.2"/></g><g transform="translate(-158,-118) scale(1,1)"><path fill="#ffffff" stroke="none" d="M 512 393 C 512 383.6111584 583.6344320000001 376 672 376 C 760.3655679999999 376 832 383.6111584 832 393 C 832 402.3888416 760.3655679999999 410 672 410 C 583.6344320000001 410 512 402.3888416 512 393 Z"/></g><g transform="translate(-158,-118) scale(1,1)"><path fill="none" stroke="#000000" d="M 512 393 C 512 383.6111584 583.6344320000001 376 672 376 C 760.3655679999999 376 832 383.6111584 832 393 C 832 402.3888416 760.3655679999999 410 672 410 C 583.6344320000001 410 512 402.3888416 512 393 Z" stroke-miterlimit="10"/></g><g transform="translate(-158,-118) scale(1,1)"><g><path fill="none" stroke="none"/><text fill="#000000" stroke="none" font-family="Arial" font-size="13px" font-style="normal" font-weight="bold" text-decoration="none" x="592.52734375" y="398.5">Carteira de investimentos</text></g></g><g transform="translate(-158,-118) scale(1,1)"><path fill="#C0C0C0" stroke="none" d="M 511 464 C 511 454.6111584 582.6344320000001 447 671 447 C 759.3655679999999 447 831 454.6111584 831 464 C 831 473.3888416 759.3655679999999 481 671 481 C 582.6344320000001 481 511 473.3888416 511 464 Z" opacity="0.2"/></g><g transform="translate(-158,-118) scale(1,1)"><path fill="#ffffff" stroke="none" d="M 504 457 C 504 447.6111584 575.6344320000001 440 664 440 C 752.3655679999999 440 824 447.6111584 824 457 C 824 466.3888416 752.3655679999999 474 664 474 C 575.6344320000001 474 504 466.3888416 504 457 Z"/></g><g transform="translate(-158,-118) scale(1,1)"><path fill="none" stroke="#000000" d="M 504 457 C 504 447.6111584 575.6344320000001 440 664 440 C 752.3655679999999 440 824 447.6111584 824 457 C 824 466.3888416 752.3655679999999 474 664 474 C 575.6344320000001 474 504 466.3888416 504 457 Z" stroke-miterlimit="10"/></g><g transform="translate(-158,-118) scale(1,1)"><g><path fill="none" stroke="none"/><text fill="#000000" stroke="none" font-family="Arial" font-size="13px" font-style="normal" font-weight="bold" text-decoration="none" x="638.35546875" y="462.5">Cotação</text></g></g><g transform="translate(-158,-118) scale(1,1)"><path fill="#ffffff" stroke="none" d="M 1208.4093503196023 369.68 C 1208.4093503196023 364.886167936 1212.2951926445478 361 1217.088623046875 361 C 1221.8820534492022 361 1225.7678957741477 364.886167936 1225.7678957741477 369.68 C 1225.7678957741477 374.473832064 1221.8820534492022 378.36 1217.088623046875 378.36 C 1212.2951926445478 378.36 1208.4093503196023 374.473832064 1208.4093503196023 369.68 Z"/></g><g transform="translate(-158,-118) scale(1,1)"><path fill="none" stroke="#000000" d="M 1208.4093503196023 369.68 C 1208.4093503196023 364.886167936 1212.2951926445478 361 1217.088623046875 361 C 1221.8820534492022 361 1225.7678957741477 364.886167936 1225.7678957741477 369.68 C 1225.7678957741477 374.473832064 1221.8820534492022 378.36 1217.088623046875 378.36 C 1212.2951926445478 378.36 1208.4093503196023 374.473832064 1208.4093503196023 369.68 Z" stroke-miterlimit="10"/></g><g transform="translate(-158,-118) scale(1,1)"><path fill="none" stroke="#000000" d="M 1217.088623046875 378.36 L 1217.088623046875 395.64" stroke-miterlimit="10"/></g><g transform="translate(-158,-118) scale(1,1)"><path fill="none" stroke="#000000" d="M 1207.8988048650567 384.84 L 1226.2784412286933 384.84" stroke-miterlimit="10"/></g><g transform="translate(-158,-118) scale(1,1)"><path fill="none" stroke="#000000" d="M 1217.088623046875 395.64 L 1204.3249866832386 413" stroke-miterlimit="10"/></g><g transform="translate(-158,-118) scale(1,1)"><path fill="none" stroke="#000000" d="M 1217.088623046875 395.64 L 1229.8522594105114 413" stroke-miterlimit="10"/></g><g transform="translate(-158,-118) scale(1,1)"><g><path fill="none" stroke="none"/><text fill="#000000" stroke="none" font-family="Arial" font-size="13px" font-style="normal" font-weight="bold" text-decoration="none" x="1208.779541015625" y="432">B3</text></g></g><g transform="translate(-158,-118) scale(1,1)"><path fill="none" stroke="#000000" d="M 825 440 L 1191 402" stroke-miterlimit="10"/></g><g transform="translate(-158,-118) scale(1,1)"><path fill="#C0C0C0" stroke="none" d="M 991 272 C 991 262.6111584 1033.0852288 255 1085 255 C 1136.9147712 255 1179 262.6111584 1179 272 C 1179 281.3888416 1136.9147712 289 1085 289 C 1033.0852288 289 991 281.3888416 991 272 Z" opacity="0.2"/></g><g transform="translate(-158,-118) scale(1,1)"><path fill="#ffffff" stroke="none" d="M 984 265 C 984 255.6111584 1026.0852288 248 1078 248 C 1129.9147712 248 1172 255.6111584 1172 265 C 1172 274.3888416 1129.9147712 282 1078 282 C 1026.0852288 282 984 274.3888416 984 265 Z"/></g><g transform="translate(-158,-118) scale(1,1)"><path fill="none" stroke="#000000" d="M 984 265 C 984 255.6111584 1026.0852288 248 1078 248 C 1129.9147712 248 1172 255.6111584 1172 265 C 1172 274.3888416 1129.9147712 282 1078 282 C 1026.0852288 282 984 274.3888416 984 265 Z" stroke-miterlimit="10"/></g><g transform="translate(-158,-118) scale(1,1)"><g><path fill="none" stroke="none"/><text fill="#000000" stroke="none" font-family="Arial" font-size="13px" font-style="normal" font-weight="bold" text-decoration="none" x="1015.872314453125" y="270.5">Mercado fracionário</text></g></g><g transform="translate(-158,-118) scale(1,1)"><path fill="none" stroke="#000000" d="M 983 265 L 833 265" stroke-miterlimit="10" stroke-dasharray="3"/></g><g transform="translate(-158,-118) scale(1,1)"><path fill="none" stroke="#000000" d="M 843.1626748576241 260.790482243984 L 833 265 L 843.1626748576241 269.209517756016" stroke-miterlimit="10"/></g><g transform="translate(-158,-118) scale(1,1)"><g><path fill="none" stroke="none"/><text fill="#000000" stroke="none" font-family="Arial" font-size="13px" font-style="normal" font-weight="normal" text-decoration="none" x="880.5" y="300">«extend»</text></g></g><g transform="translate(-158,-118) scale(1,1)"><path fill="#C0C0C0" stroke="none" d="M 1015 200 C 1015 190.6111584 1051.0410736 183 1095.5 183 C 1139.9589264 183 1176 190.6111584 1176 200 C 1176 209.3888416 1139.9589264 217 1095.5 217 C 1051.0410736 217 1015 209.3888416 1015 200 Z" opacity="0.2"/></g><g transform="translate(-158,-118) scale(1,1)"><path fill="#ffffff" stroke="none" d="M 1008 193 C 1008 183.6111584 1044.0410736 176 1088.5 176 C 1132.9589264 176 1169 183.6111584 1169 193 C 1169 202.3888416 1132.9589264 210 1088.5 210 C 1044.0410736 210 1008 202.3888416 1008 193 Z"/></g><g transform="translate(-158,-118) scale(1,1)"><path fill="none" stroke="#000000" d="M 1008 193 C 1008 183.6111584 1044.0410736 176 1088.5 176 C 1132.9589264 176 1169 183.6111584 1169 193 C 1169 202.3888416 1132.9589264 210 1088.5 210 C 1044.0410736 210 1008 202.3888416 1008 193 Z" stroke-miterlimit="10"/></g><g transform="translate(-158,-118) scale(1,1)"><g><path fill="none" stroke="none"/><text fill="#000000" stroke="none" font-family="Arial" font-size="13px" font-style="normal" font-weight="bold" text-decoration="none" x="1036.1318359375" y="198.5">Guia do iniciante</text></g></g><g transform="translate(-158,-118) scale(1,1)"><path fill="none" stroke="#000000" d="M 1007 183 L 838 163" stroke-miterlimit="10" stroke-dasharray="3"/></g><g transform="translate(-158,-118) scale(1,1)"><path fill="none" stroke="#000000" d="M 848.5869645958451 160.01400257094497 L 838 163 L 847.5975334885943 168.37469542721354" stroke-miterlimit="10"/></g><g transform="translate(-158,-118) scale(1,1)"><g><path fill="none" stroke="none"/><text fill="#000000" stroke="none" font-family="Arial" font-size="13px" font-style="normal" font-weight="normal" text-decoration="none" x="891.5" y="207">«extend»</text></g></g><g transform="translate(-158,-118) scale(1,1)"><path fill="none" stroke="#000000" d="M 983 280 L 786 311" stroke-miterlimit="10" stroke-dasharray="3"/></g><g transform="translate(-158,-118) scale(1,1)"><path fill="none" stroke="#000000" d="M 795.3847796214342 305.2618895569088 L 786 311 L 796.6934981157647 313.5785845047503" stroke-miterlimit="10"/></g><g transform="translate(-158,-118) scale(1,1)"><g><path fill="none" stroke="none"/><text fill="#000000" stroke="none" font-family="Arial" font-size="13px" font-style="normal" font-weight="normal" text-decoration="none" x="861.5" y="329">«extend»</text></g></g><g transform="translate(-158,-118) scale(1,1)"><path fill="none" stroke="#000000" d="M 1191 396 L 812 347" stroke-miterlimit="10"/></g><g transform="translate(-158,-118) scale(1,1)"><path fill="none" stroke="#000000" d="M 1191 393 L 745 283" stroke-miterlimit="10"/></g><g transform="translate(-158,-118) scale(1,1)"><path fill="none" stroke="#000000" d="M 550 439 L 226 388" stroke-miterlimit="10"/></g><g transform="translate(-158,-118) scale(1,1)"><path fill="none" stroke="#000000" d="M 511 390 L 226 384" stroke-miterlimit="10"/></g><g transform="translate(-158,-118) scale(1,1)"><path fill="none" stroke="#000000" d="M 226 384 L 511 390" stroke-miterlimit="10"/></g><g transform="translate(-158,-118) scale(1,1)"><path fill="none" stroke="#000000" d="M 226 380 L 513 347" stroke-miterlimit="10"/></g><g transform="translate(-158,-118) scale(1,1)"><path fill="none" stroke="#000000" d="M 513 347 L 226 380" stroke-miterlimit="10"/></g><g transform="translate(-158,-118) scale(1,1)"><path fill="none" stroke="#000000" d="M 599 283 L 226 375" stroke-miterlimit="10"/></g><g transform="translate(-158,-118) scale(1,1)"><path fill="none" stroke="#000000" d="M 226 368 L 651 163" stroke-miterlimit="10"/></g><g transform="translate(-158,-118) scale(1,1)"><path fill="none" stroke="#000000" d="M 651 163 L 226 368" stroke-miterlimit="10"/></g></g></svg>